<svg width="1024" height="1024" viewBox="0 0 1024 1024" fill="none" xmlns="http://www.w3.org/2000/svg">
<g clip-path="url(#clip0_20_4719)">
<rect y="-0.14386" width="1024" height="1024" fill="#2B3142"/>
<path d="M-74.7002 114.583L-2.19061 42.0737L7.81636 52.0807L-64.6932 124.59L-74.7002 114.583ZM-20.7281 134.925L17.4132 96.784L27.4202 106.791L-10.7211 144.932L-20.7281 134.925ZM-59.6897 67.7473L-49.2726 57.3302L27.7483 134.351L17.3312 144.768L-59.6897 67.7473ZM-43.1208 90.222L-31.2272 84.0702C-27.6729 92.3273 -24.884 100.803 -22.8608 109.498C-20.8375 118.192 -19.7165 126.805 -19.4978 135.335C-19.279 143.757 -20.0172 151.877 -21.7124 159.697C-23.0795 159.423 -24.6926 159.232 -26.5519 159.122C-28.4658 158.958 -30.3523 158.822 -32.2115 158.712C-34.0708 158.494 -35.7112 158.494 -37.133 158.712C-35.6019 153.463 -34.6176 147.94 -34.1801 142.143C-33.7427 136.347 -33.8247 130.469 -34.4262 124.508C-34.973 118.493 -35.9847 112.615 -37.4611 106.873C-38.9375 101.022 -40.8241 95.4716 -43.1208 90.222ZM-26.4698 74.0632C-19.6891 76.9067 -12.389 79.0667 -4.56932 80.5431C3.25034 81.9102 11.0973 82.4297 18.9717 82.1016C26.846 81.7735 34.2556 80.5431 41.2003 78.4105C41.0362 79.8869 40.9816 81.6368 41.0362 83.6601C41.1456 85.6286 41.337 87.6246 41.6104 89.6478C41.8291 91.6164 42.1026 93.3663 42.4307 94.8974C34.7204 96.7019 26.6546 97.5495 18.2335 97.4402C9.81229 97.2214 1.3091 96.1004 -7.27612 94.0772C-15.8613 92.0539 -24.2552 89.3471 -32.4576 85.9567L-26.4698 74.0632Z" fill="#31374A"/>
<path d="M42.6796 -2.79647L115.189 -75.306L125.196 -65.2991L52.6866 7.21051L42.6796 -2.79647ZM96.6516 17.5456L134.793 -20.5958L144.8 -10.5888L106.659 27.5526L96.6516 17.5456ZM57.6901 -49.6324L68.1072 -60.0495L145.128 16.9714L134.711 27.3885L57.6901 -49.6324ZM74.259 -27.1577L86.1525 -33.3095C89.7069 -25.0524 92.4957 -16.5766 94.519 -7.88198C96.5423 0.812606 97.6633 9.42517 97.882 17.9557C98.1007 26.3769 97.3625 34.4973 95.6673 42.3169C94.3003 42.0435 92.6871 41.8521 90.8279 41.7428C88.914 41.5787 87.0274 41.442 85.1682 41.3327C83.309 41.1139 81.6685 41.1139 80.2468 41.3327C81.7779 36.0831 82.7622 30.5601 83.1996 24.7637C83.6371 18.9673 83.5551 13.0889 82.9536 7.12848C82.4067 1.11336 81.3951 -4.76505 79.9187 -10.5068C78.4422 -16.3578 76.5557 -21.9082 74.259 -27.1577ZM90.9099 -43.3165C97.6906 -40.473 104.991 -38.313 112.81 -36.8366C120.63 -35.4695 128.477 -34.95 136.351 -35.2781C144.226 -35.6062 151.635 -36.8366 158.58 -38.9692C158.416 -37.4928 158.361 -35.7429 158.416 -33.7197C158.525 -31.7511 158.717 -29.7551 158.99 -27.7319C159.209 -25.7633 159.482 -24.0134 159.81 -22.4823C152.1 -20.6778 144.034 -19.8302 135.613 -19.9396C127.192 -20.1583 118.689 -21.2793 110.104 -23.3026C101.518 -25.3258 93.1246 -28.0326 84.9222 -31.423L90.9099 -43.3165Z" fill="#31374A"/>
<path d="M-57.7296 366.313L14.78 293.804L24.7869 303.811L-47.7226 376.32L-57.7296 366.313ZM-3.75754 386.655L34.3838 348.514L44.3908 358.521L6.24943 396.662L-3.75754 386.655ZM-42.7191 319.477L-32.302 309.06L44.7189 386.081L34.3018 396.498L-42.7191 319.477ZM-26.1502 341.952L-14.2567 335.8C-10.7023 344.057 -7.91344 352.533 -5.89017 361.228C-3.86691 369.922 -2.74591 378.535 -2.52717 387.065C-2.30844 395.487 -3.04666 403.607 -4.74183 411.427C-6.10891 411.153 -7.72205 410.962 -9.58127 410.853C-11.4952 410.688 -13.3817 410.552 -15.241 410.442C-17.1002 410.224 -18.7407 410.224 -20.1624 410.442C-18.6313 405.193 -17.647 399.67 -17.2095 393.873C-16.7721 388.077 -16.8541 382.199 -17.4556 376.238C-18.0024 370.223 -19.0141 364.345 -20.4905 358.603C-21.967 352.752 -23.8535 347.202 -26.1502 341.952ZM-9.49925 325.793C-2.71857 328.637 4.5816 330.797 12.4013 332.273C20.2209 333.64 28.0679 334.16 35.9423 333.832C43.8166 333.504 51.2261 332.273 58.1709 330.141C58.0068 331.617 57.9521 333.367 58.0068 335.39C58.1162 337.359 58.3076 339.355 58.581 341.378C58.7997 343.346 59.0731 345.096 59.4012 346.627C51.6909 348.432 43.6252 349.28 35.204 349.17C26.7829 348.951 18.2797 347.83 9.69446 345.807C1.10924 343.784 -7.28459 341.077 -15.487 337.687L-9.49925 325.793Z" fill="#31374A"/>
<path d="M59.6502 248.934L132.16 176.424L142.167 186.431L69.6571 258.941L59.6502 248.934ZM113.622 269.276L151.764 231.134L161.771 241.141L123.629 279.283L113.622 269.276ZM74.6606 202.098L85.0777 191.681L162.099 268.701L151.682 279.119L74.6606 202.098ZM91.2296 224.572L103.123 218.42C106.677 226.678 109.466 235.153 111.49 243.848C113.513 252.543 114.634 261.155 114.853 269.686C115.071 278.107 114.333 286.227 112.638 294.047C111.271 293.774 109.658 293.582 107.798 293.473C105.885 293.309 103.998 293.172 102.139 293.063C100.28 292.844 98.6391 292.844 97.2173 293.063C98.7485 287.813 99.7328 282.29 100.17 276.494C100.608 270.697 100.526 264.819 99.9241 258.858C99.3773 252.843 98.3657 246.965 96.8892 241.223C95.4128 235.372 93.5262 229.822 91.2296 224.572ZM107.881 208.413C114.661 211.257 121.961 213.417 129.781 214.893C137.601 216.26 145.448 216.78 153.322 216.452C161.196 216.124 168.606 214.893 175.551 212.761C175.387 214.237 175.332 215.987 175.387 218.01C175.496 219.979 175.687 221.975 175.961 223.998C176.179 225.967 176.453 227.717 176.781 229.248C169.071 231.052 161.005 231.9 152.584 231.79C144.163 231.572 135.659 230.451 127.074 228.427C118.489 226.404 110.095 223.697 101.893 220.307L107.881 208.413Z" fill="#31374A"/>
<path d="M177.03 131.554L249.539 59.0443L259.546 69.0512L187.037 141.561L177.03 131.554ZM231.002 151.896L269.143 113.755L279.15 123.762L241.009 161.903L231.002 151.896ZM192.04 84.7179L202.457 74.3008L279.478 151.322L269.061 161.739L192.04 84.7179ZM208.609 107.193L220.503 101.041C224.057 109.298 226.846 117.774 228.869 126.468C230.893 135.163 232.014 143.775 232.232 152.306C232.451 160.727 231.713 168.848 230.018 176.667C228.651 176.394 227.037 176.202 225.178 176.093C223.264 175.929 221.378 175.792 219.519 175.683C217.659 175.464 216.019 175.464 214.597 175.683C216.128 170.433 217.113 164.91 217.55 159.114C217.987 153.318 217.905 147.439 217.304 141.479C216.757 135.464 215.745 129.585 214.269 123.844C212.793 117.992 210.906 112.442 208.609 107.193ZM225.26 91.0338C232.041 93.8773 239.341 96.0373 247.161 97.5137C254.98 98.8808 262.827 99.4003 270.702 99.0722C278.576 98.7441 285.986 97.5137 292.93 95.3811C292.766 96.8575 292.712 98.6074 292.766 100.631C292.876 102.599 293.067 104.595 293.341 106.618C293.559 108.587 293.833 110.337 294.161 111.868C286.45 113.673 278.385 114.52 269.964 114.411C261.542 114.192 253.039 113.071 244.454 111.048C235.869 109.024 227.475 106.318 219.272 102.927L225.26 91.0338Z" fill="#31374A"/>
<path d="M294.41 14.1741L366.919 -58.3355L376.926 -48.3285L304.417 24.1811L294.41 14.1741ZM348.382 34.5161L386.523 -3.6252L396.53 6.38178L358.389 44.5231L348.382 34.5161ZM309.42 -32.6618L319.837 -43.0789L396.858 33.942L386.441 44.3591L309.42 -32.6618ZM325.989 -10.1871L337.882 -16.339C341.437 -8.08186 344.226 0.393999 346.249 9.08858C348.272 17.7832 349.393 26.3957 349.612 34.9263C349.831 43.3474 349.092 51.4679 347.397 59.2875C346.03 59.0141 344.417 58.8227 342.558 58.7133C340.644 58.5493 338.757 58.4126 336.898 58.3032C335.039 58.0845 333.398 58.0845 331.977 58.3032C333.508 53.0537 334.492 47.5307 334.93 41.7343C335.367 35.9379 335.285 30.0595 334.684 24.099C334.137 18.0839 333.125 12.2055 331.649 6.4638C330.172 0.612728 328.286 -4.93759 325.989 -10.1871ZM342.64 -26.346C349.421 -23.5024 356.721 -21.3425 364.54 -19.866C372.36 -18.499 380.207 -17.9795 388.081 -18.3076C395.956 -18.6357 403.365 -19.866 410.31 -21.9987C410.146 -20.5222 410.091 -18.7724 410.146 -16.7491C410.255 -14.7805 410.447 -12.7846 410.72 -10.7613C410.939 -8.79273 411.212 -7.04288 411.54 -5.51176C403.83 -3.70722 395.764 -2.85964 387.343 -2.969C378.922 -3.18773 370.419 -4.30873 361.834 -6.332C353.248 -8.35527 344.855 -11.0621 336.652 -14.4524L342.64 -26.346Z" fill="#31374A"/>
<path d="M-40.759 618.043L31.7506 545.534L41.7575 555.541L-30.752 628.05L-40.759 618.043ZM13.213 638.385L51.3544 600.244L61.3614 610.251L23.22 648.392L13.213 638.385ZM-25.7485 571.207L-15.3314 560.79L61.6895 637.811L51.2724 648.228L-25.7485 571.207ZM-9.17962 593.682L2.71392 587.53C6.26831 595.787 9.05714 604.263 11.0804 612.958C13.1037 621.652 14.2247 630.265 14.4434 638.795C14.6621 647.217 13.9239 655.337 12.2287 663.157C10.8617 662.883 9.24853 662.692 7.38931 662.582C5.47541 662.418 3.58885 662.282 1.72963 662.172C-0.129594 661.954 -1.77008 661.954 -3.19184 662.172C-1.66072 656.923 -0.676423 651.4 -0.238959 645.603C0.198505 639.807 0.116481 633.929 -0.485031 627.968C-1.03186 621.953 -2.0435 616.075 -3.51994 610.333C-4.99638 604.482 -6.88294 598.932 -9.17962 593.682ZM7.47133 577.523C14.252 580.367 21.5522 582.527 29.3718 584.003C37.1915 585.37 45.0385 585.89 52.9128 585.562C60.7872 585.233 68.1967 584.003 75.1415 581.87C74.9774 583.347 74.9227 585.097 74.9774 587.12C75.0868 589.089 75.2782 591.085 75.5516 593.108C75.7703 595.076 76.0437 596.826 76.3718 598.357C68.6615 600.162 60.5958 601.01 52.1746 600.9C43.7535 600.681 35.2503 599.56 26.665 597.537C18.0798 595.514 9.68599 592.807 1.48355 589.417L7.47133 577.523Z" fill="#31374A"/>
<path d="M76.6208 500.664L149.13 428.154L159.137 438.161L86.6277 510.671L76.6208 500.664ZM130.593 521.006L168.734 482.864L178.741 492.871L140.6 531.013L130.593 521.006ZM91.6312 453.828L102.048 443.411L179.069 520.431L168.652 530.849L91.6312 453.828ZM108.2 476.302L120.094 470.15C123.648 478.408 126.437 486.883 128.46 495.578C130.483 504.273 131.604 512.885 131.823 521.416C132.042 529.837 131.304 537.957 129.609 545.777C128.241 545.504 126.628 545.312 124.769 545.203C122.855 545.039 120.969 544.902 119.109 544.793C117.25 544.574 115.61 544.574 114.188 544.793C115.719 539.543 116.703 534.02 117.141 528.224C117.578 522.427 117.496 516.549 116.895 510.589C116.348 504.573 115.336 498.695 113.86 492.953C112.383 487.102 110.497 481.552 108.2 476.302ZM124.851 460.144C131.632 462.987 138.932 465.147 146.752 466.623C154.571 467.991 162.418 468.51 170.293 468.182C178.167 467.854 185.576 466.623 192.521 464.491C192.357 465.967 192.302 467.717 192.357 469.74C192.467 471.709 192.658 473.705 192.931 475.728C193.15 477.697 193.423 479.447 193.752 480.978C186.041 482.782 177.976 483.63 169.554 483.52C161.133 483.302 152.63 482.181 144.045 480.157C135.46 478.134 127.066 475.427 118.863 472.037L124.851 460.144Z" fill="#31374A"/>
<path d="M194 383.284L266.51 310.774L276.517 320.781L204.007 393.291L194 383.284ZM247.972 403.626L286.114 365.485L296.121 375.492L257.979 413.633L247.972 403.626ZM209.011 336.448L219.428 326.031L296.449 403.052L286.032 413.469L209.011 336.448ZM225.58 358.923L237.473 352.771C241.028 361.028 243.817 369.504 245.84 378.198C247.863 386.893 248.984 395.505 249.203 404.036C249.422 412.457 248.683 420.578 246.988 428.397C245.621 428.124 244.008 427.932 242.149 427.823C240.235 427.659 238.348 427.522 236.489 427.413C234.63 427.194 232.989 427.194 231.568 427.413C233.099 422.163 234.083 416.64 234.52 410.844C234.958 405.048 234.876 399.169 234.274 393.209C233.728 387.194 232.716 381.315 231.239 375.574C229.763 369.722 227.876 364.172 225.58 358.923ZM242.231 342.764C249.011 345.607 256.312 347.767 264.131 349.244C271.951 350.611 279.798 351.13 287.672 350.802C295.547 350.474 302.956 349.244 309.901 347.111C309.737 348.588 309.682 350.337 309.737 352.361C309.846 354.329 310.038 356.325 310.311 358.348C310.53 360.317 310.803 362.067 311.131 363.598C303.421 365.403 295.355 366.25 286.934 366.141C278.513 365.922 270.01 364.801 261.424 362.778C252.839 360.754 244.445 358.048 236.243 354.657L242.231 342.764Z" fill="#31374A"/>
<path d="M311.38 265.904L383.89 193.395L393.897 203.402L321.387 275.911L311.38 265.904ZM365.352 286.246L403.494 248.105L413.501 258.112L375.359 296.253L365.352 286.246ZM326.391 219.068L336.808 208.651L413.829 285.672L403.412 296.089L326.391 219.068ZM342.96 241.543L354.853 235.391C358.407 243.648 361.196 252.124 363.22 260.819C365.243 269.513 366.364 278.126 366.583 286.656C366.801 295.077 366.063 303.198 364.368 311.018C363.001 310.744 361.388 310.553 359.528 310.443C357.615 310.279 355.728 310.143 353.869 310.033C352.01 309.814 350.369 309.814 348.947 310.033C350.478 304.784 351.463 299.261 351.9 293.464C352.338 287.668 352.256 281.789 351.654 275.829C351.107 269.814 350.096 263.936 348.619 258.194C347.143 252.343 345.256 246.792 342.96 241.543ZM359.61 225.384C366.391 228.228 373.691 230.388 381.511 231.864C389.331 233.231 397.178 233.751 405.052 233.422C412.926 233.094 420.336 231.864 427.281 229.731C427.117 231.208 427.062 232.958 427.117 234.981C427.226 236.949 427.417 238.945 427.691 240.969C427.909 242.937 428.183 244.687 428.511 246.218C420.801 248.023 412.735 248.87 404.314 248.761C395.893 248.542 387.389 247.421 378.804 245.398C370.219 243.375 361.825 240.668 353.623 237.278L359.61 225.384Z" fill="#31374A"/>
<path d="M428.76 148.524L501.269 76.0148L511.276 86.0218L438.767 158.531L428.76 148.524ZM482.732 168.866L520.873 130.725L530.88 140.732L492.739 178.873L482.732 168.866ZM443.77 101.688L454.187 91.2714L531.208 168.292L520.791 178.709L443.77 101.688ZM460.339 124.163L472.233 118.011C475.787 126.268 478.576 134.744 480.599 143.439C482.623 152.133 483.744 160.746 483.962 169.277C484.181 177.698 483.443 185.818 481.748 193.638C480.381 193.364 478.767 193.173 476.908 193.064C474.994 192.9 473.108 192.763 471.249 192.654C469.389 192.435 467.749 192.435 466.327 192.654C467.858 187.404 468.842 181.881 469.28 176.085C469.717 170.288 469.635 164.41 469.034 158.449C468.487 152.434 467.475 146.556 465.999 140.814C464.523 134.963 462.636 129.413 460.339 124.163ZM476.99 108.004C483.771 110.848 491.071 113.008 498.891 114.484C506.71 115.851 514.557 116.371 522.432 116.043C530.306 115.715 537.716 114.484 544.66 112.352C544.496 113.828 544.442 115.578 544.496 117.601C544.606 119.57 544.797 121.566 545.07 123.589C545.289 125.558 545.563 127.307 545.891 128.839C538.18 130.643 530.115 131.491 521.694 131.381C513.272 131.163 504.769 130.042 496.184 128.018C487.599 125.995 479.205 123.288 471.002 119.898L476.99 108.004Z" fill="#31374A"/>
<path d="M546.14 31.1447L618.649 -41.3649L628.656 -31.3579L556.147 41.1516L546.14 31.1447ZM600.112 51.4867L638.253 13.3454L648.26 23.3523L610.119 61.4937L600.112 51.4867ZM561.15 -15.6913L571.567 -26.1084L648.588 50.9125L638.171 61.3296L561.15 -15.6913ZM577.719 6.78342L589.613 0.631582C593.167 8.88871 595.956 17.3646 597.979 26.0591C600.002 34.7537 601.123 43.3663 601.342 51.8968C601.561 60.318 600.823 68.4384 599.127 76.2581C597.76 75.9847 596.147 75.7933 594.288 75.6839C592.374 75.5199 590.488 75.3831 588.628 75.2738C586.769 75.055 585.129 75.055 583.707 75.2738C585.238 70.0242 586.222 64.5012 586.66 58.7049C587.097 52.9085 587.015 47.03 586.414 41.0696C585.867 35.0545 584.855 29.1761 583.379 23.4344C581.902 17.5833 580.016 12.033 577.719 6.78342ZM594.37 -9.37539C601.151 -6.53188 608.451 -4.3719 616.271 -2.89546C624.09 -1.52839 631.937 -1.0089 639.812 -1.337C647.686 -1.6651 655.095 -2.89547 662.04 -5.0281C661.876 -3.55166 661.821 -1.80181 661.876 0.22146C661.985 2.19005 662.177 4.18598 662.45 6.20924C662.669 8.17783 662.942 9.92768 663.271 11.4588C655.56 13.2633 647.494 14.1109 639.073 14.0016C630.652 13.7828 622.149 12.6618 613.564 10.6386C604.979 8.61529 596.585 5.90849 588.382 2.51815L594.37 -9.37539Z" fill="#31374A"/>
<path d="M-23.7884 869.773L48.7211 797.264L58.7281 807.271L-13.7815 879.78L-23.7884 869.773ZM30.1836 890.115L68.325 851.974L78.3319 861.981L40.1906 900.122L30.1836 890.115ZM-8.77796 822.937L1.63913 812.52L78.66 889.541L68.2429 899.958L-8.77796 822.937ZM7.79096 845.412L19.6845 839.26C23.2389 847.517 26.0277 855.993 28.051 864.688C30.0743 873.382 31.1953 881.995 31.414 890.525C31.6327 898.947 30.8945 907.067 29.1993 914.887C27.8323 914.613 26.2191 914.422 24.3599 914.313C22.446 914.148 20.5594 914.012 18.7002 913.902C16.841 913.684 15.2005 913.684 13.7787 913.902C15.3099 908.653 16.2942 903.13 16.7316 897.333C17.1691 891.537 17.0871 885.659 16.4855 879.698C15.9387 873.683 14.9271 867.805 13.4506 862.063C11.9742 856.212 10.0876 850.662 7.79096 845.412ZM24.4419 829.253C31.2226 832.097 38.5228 834.257 46.3424 835.733C54.1621 837.1 62.0091 837.62 69.8834 837.292C77.7578 836.964 85.1673 835.733 92.112 833.601C91.948 835.077 91.8933 836.827 91.948 838.85C92.0574 840.819 92.2487 842.815 92.5222 844.838C92.7409 846.806 93.0143 848.556 93.3424 850.087C85.6321 851.892 77.5664 852.74 69.1452 852.63C60.724 852.411 52.2208 851.29 43.6356 849.267C35.0504 847.244 26.6566 844.537 18.4541 841.147L24.4419 829.253Z" fill="#31374A"/>
<path d="M93.5913 752.394L166.101 679.884L176.108 689.891L103.598 762.401L93.5913 752.394ZM147.563 772.736L185.705 734.594L195.712 744.601L157.57 782.743L147.563 772.736ZM108.602 705.558L119.019 695.141L196.04 772.161L185.623 782.579L108.602 705.558ZM125.171 728.032L137.064 721.881C140.619 730.138 143.407 738.614 145.431 747.308C147.454 756.003 148.575 764.615 148.794 773.146C149.012 781.567 148.274 789.687 146.579 797.507C145.212 797.234 143.599 797.042 141.74 796.933C139.826 796.769 137.939 796.632 136.08 796.523C134.221 796.304 132.58 796.304 131.159 796.523C132.69 791.273 133.674 785.75 134.111 779.954C134.549 774.157 134.467 768.279 133.865 762.319C133.318 756.303 132.307 750.425 130.83 744.683C129.354 738.832 127.467 733.282 125.171 728.032ZM141.822 711.874C148.602 714.717 155.903 716.877 163.722 718.353C171.542 719.721 179.389 720.24 187.263 719.912C195.138 719.584 202.547 718.353 209.492 716.221C209.328 717.697 209.273 719.447 209.328 721.47C209.437 723.439 209.629 725.435 209.902 727.458C210.121 729.427 210.394 731.177 210.722 732.708C203.012 734.512 194.946 735.36 186.525 735.251C178.104 735.032 169.601 733.911 161.015 731.887C152.43 729.864 144.036 727.157 135.834 723.767L141.822 711.874Z" fill="#31374A"/>
<path d="M210.971 635.014L283.481 562.504L293.488 572.511L220.978 645.021L210.971 635.014ZM264.943 655.356L303.084 617.215L313.091 627.222L274.95 665.363L264.943 655.356ZM225.981 588.178L236.399 577.761L313.419 654.782L303.002 665.199L225.981 588.178ZM242.55 610.653L254.444 604.501C257.998 612.758 260.787 621.234 262.81 629.928C264.834 638.623 265.955 647.235 266.173 655.766C266.392 664.187 265.654 672.308 263.959 680.127C262.592 679.854 260.979 679.662 259.119 679.553C257.205 679.389 255.319 679.252 253.46 679.143C251.6 678.924 249.96 678.924 248.538 679.143C250.069 673.893 251.054 668.37 251.491 662.574C251.928 656.778 251.846 650.899 251.245 644.939C250.698 638.924 249.686 633.045 248.21 627.304C246.734 621.452 244.847 615.902 242.55 610.653ZM259.201 594.494C265.982 597.337 273.282 599.497 281.102 600.974C288.921 602.341 296.768 602.86 304.643 602.532C312.517 602.204 319.927 600.974 326.871 598.841C326.707 600.318 326.653 602.067 326.707 604.091C326.817 606.059 327.008 608.055 327.282 610.078C327.5 612.047 327.774 613.797 328.102 615.328C320.392 617.133 312.326 617.98 303.905 617.871C295.483 617.652 286.98 616.531 278.395 614.508C269.81 612.484 261.416 609.778 253.214 606.387L259.201 594.494Z" fill="#31374A"/>
<path d="M328.351 517.634L400.86 445.125L410.867 455.132L338.358 527.641L328.351 517.634ZM382.323 537.976L420.464 499.835L430.471 509.842L392.33 547.983L382.323 537.976ZM343.361 470.798L353.778 460.381L430.799 537.402L420.382 547.819L343.361 470.798ZM359.93 493.273L371.824 487.121C375.378 495.378 378.167 503.854 380.19 512.549C382.213 521.243 383.334 529.856 383.553 538.386C383.772 546.807 383.034 554.928 381.338 562.748C379.971 562.474 378.358 562.283 376.499 562.173C374.585 562.009 372.699 561.873 370.839 561.763C368.98 561.545 367.34 561.545 365.918 561.763C367.449 556.514 368.433 550.991 368.871 545.194C369.308 539.398 369.226 533.52 368.625 527.559C368.078 521.544 367.066 515.666 365.59 509.924C364.113 504.073 362.227 498.522 359.93 493.273ZM376.581 477.114C383.362 479.958 390.662 482.118 398.482 483.594C406.301 484.961 414.148 485.481 422.023 485.152C429.897 484.824 437.306 483.594 444.251 481.461C444.087 482.938 444.032 484.688 444.087 486.711C444.197 488.68 444.388 490.675 444.661 492.699C444.88 494.667 445.153 496.417 445.482 497.948C437.771 499.753 429.706 500.6 421.284 500.491C412.863 500.272 404.36 499.151 395.775 497.128C387.19 495.105 378.796 492.398 370.593 489.008L376.581 477.114Z" fill="#31374A"/>
<path d="M445.73 400.254L518.24 327.745L528.247 337.752L455.737 410.261L445.73 400.254ZM499.703 420.596L537.844 382.455L547.851 392.462L509.71 430.603L499.703 420.596ZM460.741 353.418L471.158 343.001L548.179 420.022L537.762 430.439L460.741 353.418ZM477.31 375.893L489.203 369.741C492.758 377.998 495.547 386.474 497.57 395.169C499.593 403.863 500.714 412.476 500.933 421.007C501.152 429.428 500.413 437.548 498.718 445.368C497.351 445.094 495.738 444.903 493.879 444.794C491.965 444.63 490.078 444.493 488.219 444.384C486.36 444.165 484.719 444.165 483.298 444.384C484.829 439.134 485.813 433.611 486.251 427.815C486.688 422.018 486.606 416.14 486.004 410.179C485.458 404.164 484.446 398.286 482.97 392.544C481.493 386.693 479.607 381.143 477.31 375.893ZM493.961 359.734C500.742 362.578 508.042 364.738 515.861 366.214C523.681 367.581 531.528 368.101 539.402 367.773C547.277 367.445 554.686 366.214 561.631 364.082C561.467 365.558 561.412 367.308 561.467 369.331C561.576 371.3 561.768 373.296 562.041 375.319C562.26 377.288 562.533 379.037 562.861 380.569C555.151 382.373 547.085 383.221 538.664 383.111C530.243 382.893 521.74 381.772 513.155 379.748C504.569 377.725 496.175 375.018 487.973 371.628L493.961 359.734Z" fill="#31374A"/>
<path d="M563.11 282.875L635.62 210.365L645.627 220.372L573.117 292.882L563.11 282.875ZM617.082 303.217L655.224 265.075L665.23 275.082L627.089 313.224L617.082 303.217ZM578.121 236.039L588.538 225.622L665.559 302.643L655.141 313.06L578.121 236.039ZM594.69 258.513L606.583 252.362C610.137 260.619 612.926 269.095 614.95 277.789C616.973 286.484 618.094 295.096 618.313 303.627C618.531 312.048 617.793 320.168 616.098 327.988C614.731 327.715 613.118 327.523 611.258 327.414C609.345 327.25 607.458 327.113 605.599 327.004C603.74 326.785 602.099 326.785 600.677 327.004C602.208 321.754 603.193 316.231 603.63 310.435C604.068 304.638 603.986 298.76 603.384 292.8C602.837 286.784 601.826 280.906 600.349 275.164C598.873 269.313 596.986 263.763 594.69 258.513ZM611.34 242.355C618.121 245.198 625.421 247.358 633.241 248.835C641.061 250.202 648.908 250.721 656.782 250.393C664.656 250.065 672.066 248.835 679.011 246.702C678.847 248.178 678.792 249.928 678.847 251.951C678.956 253.92 679.147 255.916 679.421 257.939C679.639 259.908 679.913 261.658 680.241 263.189C672.531 264.993 664.465 265.841 656.044 265.732C647.623 265.513 639.119 264.392 630.534 262.369C621.949 260.345 613.555 257.638 605.353 254.248L611.34 242.355Z" fill="#31374A"/>
<path d="M680.49 165.495L753 92.9854L763.007 102.992L690.497 175.502L680.49 165.495ZM734.462 185.837L772.603 147.696L782.61 157.703L744.469 195.844L734.462 185.837ZM695.5 118.659L705.918 108.242L782.938 185.263L772.521 195.68L695.5 118.659ZM712.069 141.134L723.963 134.982C727.517 143.239 730.306 151.715 732.329 160.409C734.353 169.104 735.474 177.717 735.692 186.247C735.911 194.668 735.173 202.789 733.478 210.608C732.111 210.335 730.498 210.144 728.638 210.034C726.724 209.87 724.838 209.733 722.979 209.624C721.119 209.405 719.479 209.405 718.057 209.624C719.588 204.375 720.573 198.852 721.01 193.055C721.448 187.259 721.366 181.38 720.764 175.42C720.217 169.405 719.206 163.526 717.729 157.785C716.253 151.934 714.366 146.383 712.069 141.134ZM728.72 124.975C735.501 127.818 742.801 129.978 750.621 131.455C758.441 132.822 766.288 133.341 774.162 133.013C782.036 132.685 789.446 131.455 796.39 129.322C796.226 130.799 796.172 132.548 796.226 134.572C796.336 136.54 796.527 138.536 796.801 140.56C797.019 142.528 797.293 144.278 797.621 145.809C789.911 147.614 781.845 148.461 773.424 148.352C765.002 148.133 756.499 147.012 747.914 144.989C739.329 142.966 730.935 140.259 722.733 136.868L728.72 124.975Z" fill="#31374A"/>
<path d="M797.87 48.1152L870.379 -24.3943L880.386 -14.3874L807.877 58.1222L797.87 48.1152ZM851.842 68.4573L889.983 30.3159L899.99 40.3229L861.849 78.4642L851.842 68.4573ZM812.88 1.27929L823.297 -9.1378L900.318 67.8831L889.901 78.3002L812.88 1.27929ZM829.449 23.754L841.343 17.6021C844.897 25.8593 847.686 34.3351 849.709 43.0297C851.732 51.7243 852.853 60.3369 853.072 68.8674C853.291 77.2886 852.553 85.409 850.857 93.2286C849.49 92.9552 847.877 92.7638 846.018 92.6545C844.104 92.4904 842.218 92.3537 840.358 92.2443C838.499 92.0256 836.859 92.0256 835.437 92.2443C836.968 86.9948 837.952 81.4718 838.39 75.6754C838.827 69.879 838.745 64.0006 838.144 58.0402C837.597 52.0251 836.585 46.1466 835.109 40.4049C833.632 34.5539 831.746 29.0035 829.449 23.754ZM846.1 7.59517C852.881 10.4387 860.181 12.5987 868.001 14.0751C875.82 15.4422 883.667 15.9617 891.542 15.6336C899.416 15.3055 906.825 14.0751 913.77 11.9425C913.606 13.4189 913.551 15.1688 913.606 17.192C913.715 19.1606 913.907 21.1565 914.18 23.1798C914.399 25.1484 914.672 26.8982 915 28.4294C907.29 30.2339 899.224 31.0815 890.803 30.9721C882.382 30.7534 873.879 29.6324 865.294 27.6091C856.708 25.5859 848.315 22.879 840.112 19.4887L846.1 7.59517Z" fill="#31374A"/>
<path d="M110.562 1004.12L183.071 931.614L193.078 941.621L120.569 1014.13L110.562 1004.12ZM164.534 1024.47L202.675 986.324L212.682 996.331L174.541 1034.47L164.534 1024.47ZM125.572 957.288L135.989 946.871L213.01 1023.89L202.593 1034.31L125.572 957.288ZM142.141 979.762L154.035 973.611C157.589 981.868 160.378 990.343 162.401 999.038C164.424 1007.73 165.545 1016.35 165.764 1024.88C165.983 1033.3 165.245 1041.42 163.55 1049.24C162.182 1048.96 160.569 1048.77 158.71 1048.66C156.796 1048.5 154.91 1048.36 153.05 1048.25C151.191 1048.03 149.551 1048.03 148.129 1048.25C149.66 1043 150.644 1037.48 151.082 1031.68C151.519 1025.89 151.437 1020.01 150.836 1014.05C150.289 1008.03 149.277 1002.15 147.801 996.413C146.324 990.562 144.438 985.012 142.141 979.762ZM158.792 963.604C165.573 966.447 172.873 968.607 180.693 970.083C188.512 971.451 196.359 971.97 204.234 971.642C212.108 971.314 219.518 970.083 226.462 967.951C226.298 969.427 226.244 971.177 226.298 973.2C226.408 975.169 226.599 977.165 226.872 979.188C227.091 981.157 227.365 982.907 227.693 984.438C219.982 986.242 211.917 987.09 203.495 986.98C195.074 986.762 186.571 985.641 177.986 983.617C169.401 981.594 161.007 978.887 152.804 975.497L158.792 963.604Z" fill="#31374A"/>
<path d="M227.942 886.744L300.451 814.234L310.458 824.241L237.949 896.751L227.942 886.744ZM281.914 907.086L320.055 868.945L330.062 878.952L291.921 917.093L281.914 907.086ZM242.952 839.908L253.369 829.491L330.39 906.512L319.973 916.929L242.952 839.908ZM259.521 862.383L271.414 856.231C274.969 864.488 277.758 872.964 279.781 881.658C281.804 890.353 282.925 898.966 283.144 907.496C283.363 915.917 282.624 924.038 280.929 931.857C279.562 931.584 277.949 931.392 276.09 931.283C274.176 931.119 272.289 930.982 270.43 930.873C268.571 930.654 266.93 930.654 265.509 930.873C267.04 925.623 268.024 920.1 268.462 914.304C268.899 908.508 268.817 902.629 268.216 896.669C267.669 890.654 266.657 884.775 265.181 879.034C263.704 873.183 261.818 867.632 259.521 862.383ZM276.172 846.224C282.953 849.067 290.253 851.227 298.072 852.704C305.892 854.071 313.739 854.59 321.613 854.262C329.488 853.934 336.897 852.704 343.842 850.571C343.678 852.048 343.623 853.797 343.678 855.821C343.787 857.789 343.979 859.785 344.252 861.808C344.471 863.777 344.744 865.527 345.072 867.058C337.362 868.863 329.296 869.71 320.875 869.601C312.454 869.382 303.951 868.261 295.366 866.238C286.78 864.215 278.387 861.508 270.184 858.117L276.172 846.224Z" fill="#31374A"/>
<path d="M345.321 769.364L417.831 696.855L427.838 706.862L355.328 779.371L345.321 769.364ZM399.293 789.706L437.435 751.565L447.442 761.572L409.3 799.713L399.293 789.706ZM360.332 722.528L370.749 712.111L447.77 789.132L437.353 799.549L360.332 722.528ZM376.901 745.003L388.794 738.851C392.349 747.108 395.137 755.584 397.161 764.279C399.184 772.973 400.305 781.586 400.524 790.116C400.742 798.537 400.004 806.658 398.309 814.478C396.942 814.204 395.329 814.013 393.47 813.903C391.556 813.739 389.669 813.603 387.81 813.493C385.951 813.275 384.31 813.275 382.888 813.493C384.42 808.244 385.404 802.721 385.841 796.924C386.279 791.128 386.197 785.25 385.595 779.289C385.048 773.274 384.037 767.396 382.56 761.654C381.084 755.803 379.197 750.252 376.901 745.003ZM393.552 728.844C400.332 731.688 407.633 733.848 415.452 735.324C423.272 736.691 431.119 737.211 438.993 736.882C446.868 736.554 454.277 735.324 461.222 733.191C461.058 734.668 461.003 736.418 461.058 738.441C461.167 740.41 461.358 742.405 461.632 744.429C461.851 746.397 462.124 748.147 462.452 749.678C454.742 751.483 446.676 752.33 438.255 752.221C429.834 752.002 421.331 750.881 412.745 748.858C404.16 746.835 395.766 744.128 387.564 740.738L393.552 728.844Z" fill="#31374A"/>
<path d="M462.701 651.984L535.211 579.475L545.218 589.482L472.708 661.991L462.701 651.984ZM516.673 672.326L554.814 634.185L564.821 644.192L526.68 682.333L516.673 672.326ZM477.712 605.148L488.129 594.731L565.15 671.752L554.732 682.169L477.712 605.148ZM494.28 627.623L506.174 621.471C509.728 629.728 512.517 638.204 514.54 646.899C516.564 655.593 517.685 664.206 517.903 672.737C518.122 681.158 517.384 689.278 515.689 697.098C514.322 696.824 512.709 696.633 510.849 696.524C508.935 696.36 507.049 696.223 505.19 696.114C503.33 695.895 501.69 695.895 500.268 696.114C501.799 690.864 502.784 685.341 503.221 679.545C503.659 673.748 503.577 667.87 502.975 661.909C502.428 655.894 501.417 650.016 499.94 644.274C498.464 638.423 496.577 632.873 494.28 627.623ZM510.931 611.464C517.712 614.308 525.012 616.468 532.832 617.944C540.652 619.311 548.499 619.831 556.373 619.503C564.247 619.175 571.657 617.944 578.602 615.812C578.437 617.288 578.383 619.038 578.437 621.061C578.547 623.03 578.738 625.026 579.012 627.049C579.23 629.018 579.504 630.767 579.832 632.299C572.122 634.103 564.056 634.951 555.635 634.841C547.214 634.623 538.71 633.502 530.125 631.478C521.54 629.455 513.146 626.748 504.944 623.358L510.931 611.464Z" fill="#31374A"/>
<path d="M580.081 534.605L652.59 462.095L662.597 472.102L590.088 544.612L580.081 534.605ZM634.053 554.947L672.194 516.805L682.201 526.812L644.06 564.954L634.053 554.947ZM595.091 487.769L605.508 477.352L682.529 554.373L672.112 564.79L595.091 487.769ZM611.66 510.243L623.554 504.092C627.108 512.349 629.897 520.825 631.92 529.519C633.944 538.214 635.065 546.826 635.283 555.357C635.502 563.778 634.764 571.898 633.069 579.718C631.702 579.445 630.088 579.253 628.229 579.144C626.315 578.98 624.429 578.843 622.569 578.734C620.71 578.515 619.07 578.515 617.648 578.734C619.179 573.484 620.163 567.961 620.601 562.165C621.038 556.368 620.956 550.49 620.355 544.53C619.808 538.515 618.796 532.636 617.32 526.894C615.843 521.043 613.957 515.493 611.66 510.243ZM628.311 494.085C635.092 496.928 642.392 499.088 650.212 500.565C658.031 501.932 665.878 502.451 673.753 502.123C681.627 501.795 689.037 500.565 695.981 498.432C695.817 499.908 695.763 501.658 695.817 503.681C695.927 505.65 696.118 507.646 696.391 509.669C696.61 511.638 696.884 513.388 697.212 514.919C689.501 516.723 681.436 517.571 673.014 517.462C664.593 517.243 656.09 516.122 647.505 514.099C638.92 512.075 630.526 509.369 622.323 505.978L628.311 494.085Z" fill="#31374A"/>
<path d="M697.46 417.225L769.97 344.715L779.977 354.722L707.467 427.232L697.46 417.225ZM751.433 437.567L789.574 399.426L799.581 409.433L761.439 447.574L751.433 437.567ZM712.471 370.389L722.888 359.972L799.909 436.993L789.492 447.41L712.471 370.389ZM729.04 392.864L740.933 386.712C744.488 394.969 747.277 403.445 749.3 412.139C751.323 420.834 752.444 429.447 752.663 437.977C752.882 446.398 752.143 454.519 750.448 462.338C749.081 462.065 747.468 461.874 745.609 461.764C743.695 461.6 741.808 461.463 739.949 461.354C738.09 461.135 736.449 461.135 735.028 461.354C736.559 456.105 737.543 450.582 737.981 444.785C738.418 438.989 738.336 433.11 737.734 427.15C737.188 421.135 736.176 415.256 734.7 409.515C733.223 403.664 731.337 398.113 729.04 392.864ZM745.691 376.705C752.471 379.548 759.772 381.708 767.591 383.185C775.411 384.552 783.258 385.071 791.132 384.743C799.007 384.415 806.416 383.185 813.361 381.052C813.197 382.529 813.142 384.278 813.197 386.302C813.306 388.27 813.498 390.266 813.771 392.29C813.99 394.258 814.263 396.008 814.591 397.539C806.881 399.344 798.815 400.191 790.394 400.082C781.973 399.863 773.47 398.742 764.885 396.719C756.299 394.696 747.905 391.989 739.703 388.598L745.691 376.705Z" fill="#31374A"/>
<path d="M814.84 299.845L887.35 227.336L897.357 237.343L824.847 309.852L814.84 299.845ZM868.812 320.187L906.954 282.046L916.96 292.053L878.819 330.194L868.812 320.187ZM829.851 253.009L840.268 242.592L917.289 319.613L906.871 330.03L829.851 253.009ZM846.42 275.484L858.313 269.332C861.867 277.589 864.656 286.065 866.68 294.76C868.703 303.454 869.824 312.067 870.043 320.597C870.261 329.019 869.523 337.139 867.828 344.959C866.461 344.685 864.848 344.494 862.988 344.384C861.075 344.22 859.188 344.084 857.329 343.974C855.47 343.756 853.829 343.756 852.407 343.974C853.938 338.725 854.923 333.202 855.36 327.405C855.798 321.609 855.716 315.731 855.114 309.77C854.567 303.755 853.556 297.877 852.079 292.135C850.603 286.284 848.716 280.734 846.42 275.484ZM863.07 259.325C869.851 262.169 877.151 264.329 884.971 265.805C892.791 267.172 900.638 267.692 908.512 267.364C916.386 267.035 923.796 265.805 930.741 263.672C930.577 265.149 930.522 266.899 930.577 268.922C930.686 270.891 930.877 272.887 931.151 274.91C931.369 276.878 931.643 278.628 931.971 280.159C924.261 281.964 916.195 282.811 907.774 282.702C899.353 282.483 890.849 281.362 882.264 279.339C873.679 277.316 865.285 274.609 857.083 271.219L863.07 259.325Z" fill="#31374A"/>
<path d="M932.22 182.465L1004.73 109.956L1014.74 119.963L942.227 192.472L932.22 182.465ZM986.192 202.808L1024.33 164.666L1034.34 174.673L996.199 212.815L986.192 202.808ZM947.23 135.63L957.648 125.212L1034.67 202.233L1024.25 212.65L947.23 135.63ZM963.799 158.104L975.693 151.952C979.247 160.21 982.036 168.685 984.059 177.38C986.083 186.075 987.204 194.687 987.422 203.218C987.641 211.639 986.903 219.759 985.208 227.579C983.841 227.305 982.228 227.114 980.368 227.005C978.454 226.841 976.568 226.704 974.709 226.595C972.849 226.376 971.209 226.376 969.787 226.595C971.318 221.345 972.303 215.822 972.74 210.026C973.178 204.229 973.095 198.351 972.494 192.39C971.947 186.375 970.936 180.497 969.459 174.755C967.983 168.904 966.096 163.354 963.799 158.104ZM980.45 141.945C987.231 144.789 994.531 146.949 1002.35 148.425C1010.17 149.792 1018.02 150.312 1025.89 149.984C1033.77 149.656 1041.18 148.425 1048.12 146.293C1047.96 147.769 1047.9 149.519 1047.96 151.542C1048.07 153.511 1048.26 155.507 1048.53 157.53C1048.75 159.499 1049.02 161.249 1049.35 162.78C1041.64 164.584 1033.57 165.432 1025.15 165.322C1016.73 165.104 1008.23 163.983 999.644 161.959C991.059 159.936 982.665 157.229 974.463 153.839L980.45 141.945Z" fill="#31374A"/>
<path d="M362.292 1021.09L434.801 948.585L444.808 958.592L372.299 1031.1L362.292 1021.09ZM416.264 1041.44L454.405 1003.29L464.412 1013.3L426.271 1051.44L416.264 1041.44ZM377.302 974.258L387.719 963.841L464.74 1040.86L454.323 1051.28L377.302 974.258ZM393.871 996.733L405.765 990.581C409.319 998.838 412.108 1007.31 414.131 1016.01C416.155 1024.7 417.276 1033.32 417.494 1041.85C417.713 1050.27 416.975 1058.39 415.28 1066.21C413.913 1065.93 412.299 1065.74 410.44 1065.63C408.526 1065.47 406.64 1065.33 404.781 1065.22C402.921 1065 401.281 1065 399.859 1065.22C401.39 1059.97 402.374 1054.45 402.812 1048.65C403.249 1042.86 403.167 1036.98 402.566 1031.02C402.019 1025 401.007 1019.13 399.531 1013.38C398.055 1007.53 396.168 1001.98 393.871 996.733ZM410.522 980.574C417.303 983.418 424.603 985.578 432.423 987.054C440.242 988.421 448.089 988.941 455.964 988.612C463.838 988.284 471.248 987.054 478.192 984.921C478.028 986.398 477.974 988.148 478.028 990.171C478.138 992.14 478.329 994.135 478.602 996.159C478.821 998.127 479.095 999.877 479.423 1001.41C471.712 1003.21 463.647 1004.06 455.226 1003.95C446.804 1003.73 438.301 1002.61 429.716 1000.59C421.131 998.565 412.737 995.858 404.534 992.468L410.522 980.574Z" fill="#31374A"/>
<path d="M479.672 903.714L552.181 831.205L562.188 841.212L489.679 913.721L479.672 903.714ZM533.644 924.056L571.785 885.915L581.792 895.922L543.651 934.063L533.644 924.056ZM494.682 856.878L505.099 846.461L582.12 923.482L571.703 933.899L494.682 856.878ZM511.251 879.353L523.144 873.201C526.699 881.458 529.488 889.934 531.511 898.629C533.534 907.323 534.655 915.936 534.874 924.467C535.093 932.888 534.354 941.008 532.659 948.828C531.292 948.554 529.679 948.363 527.82 948.254C525.906 948.09 524.019 947.953 522.16 947.844C520.301 947.625 518.66 947.625 517.239 947.844C518.77 942.594 519.754 937.071 520.192 931.275C520.629 925.478 520.547 919.6 519.946 913.639C519.399 907.624 518.387 901.746 516.911 896.004C515.434 890.153 513.548 884.603 511.251 879.353ZM527.902 863.194C534.683 866.038 541.983 868.198 549.802 869.674C557.622 871.041 565.469 871.561 573.343 871.233C581.218 870.905 588.627 869.674 595.572 867.542C595.408 869.018 595.353 870.768 595.408 872.791C595.517 874.76 595.709 876.756 595.982 878.779C596.201 880.748 596.474 882.497 596.802 884.029C589.092 885.833 581.026 886.681 572.605 886.571C564.184 886.353 555.681 885.232 547.096 883.208C538.51 881.185 530.117 878.478 521.914 875.088L527.902 863.194Z" fill="#31374A"/>
<path d="M597.051 786.335L669.561 713.825L679.568 723.832L607.058 796.342L597.051 786.335ZM651.023 806.677L689.165 768.535L699.172 778.542L661.03 816.684L651.023 806.677ZM612.062 739.499L622.479 729.082L699.5 806.103L689.083 816.52L612.062 739.499ZM628.631 761.973L640.524 755.822C644.079 764.079 646.867 772.555 648.891 781.249C650.914 789.944 652.035 798.556 652.254 807.087C652.472 815.508 651.734 823.628 650.039 831.448C648.672 831.175 647.059 830.983 645.2 830.874C643.286 830.71 641.399 830.573 639.54 830.464C637.681 830.245 636.04 830.245 634.618 830.464C636.15 825.214 637.134 819.691 637.571 813.895C638.009 808.099 637.927 802.22 637.325 796.26C636.778 790.245 635.767 784.366 634.29 778.624C632.814 772.773 630.927 767.223 628.631 761.973ZM645.282 745.815C652.062 748.658 659.362 750.818 667.182 752.295C675.002 753.662 682.849 754.181 690.723 753.853C698.597 753.525 706.007 752.295 712.952 750.162C712.788 751.638 712.733 753.388 712.788 755.412C712.897 757.38 713.088 759.376 713.362 761.399C713.581 763.368 713.854 765.118 714.182 766.649C706.472 768.453 698.406 769.301 689.985 769.192C681.564 768.973 673.061 767.852 664.475 765.829C655.89 763.805 647.496 761.099 639.294 757.708L645.282 745.815Z" fill="#31374A"/>
<path d="M714.431 668.955L786.94 596.445L796.947 606.452L724.438 678.962L714.431 668.955ZM768.403 689.297L806.544 651.156L816.551 661.163L778.41 699.304L768.403 689.297ZM729.441 622.119L739.858 611.702L816.879 688.723L806.462 699.14L729.441 622.119ZM746.01 644.594L757.904 638.442C761.458 646.699 764.247 655.175 766.27 663.869C768.294 672.564 769.415 681.177 769.633 689.707C769.852 698.128 769.114 706.249 767.419 714.068C766.052 713.795 764.438 713.604 762.579 713.494C760.665 713.33 758.779 713.193 756.92 713.084C755.06 712.865 753.42 712.865 751.998 713.084C753.529 707.835 754.514 702.312 754.951 696.515C755.388 690.719 755.306 684.84 754.705 678.88C754.158 672.865 753.146 666.986 751.67 661.245C750.194 655.394 748.307 649.843 746.01 644.594ZM762.661 628.435C769.442 631.278 776.742 633.438 784.562 634.915C792.381 636.282 800.228 636.801 808.103 636.473C815.977 636.145 823.387 634.915 830.331 632.782C830.167 634.259 830.113 636.009 830.167 638.032C830.277 640 830.468 641.996 830.742 644.02C830.96 645.988 831.234 647.738 831.562 649.269C823.851 651.074 815.786 651.921 807.365 651.812C798.943 651.593 790.44 650.472 781.855 648.449C773.27 646.426 764.876 643.719 756.673 640.328L762.661 628.435Z" fill="#31374A"/>
<path d="M831.811 551.575L904.32 479.066L914.327 489.073L841.818 561.582L831.811 551.575ZM885.783 571.917L923.924 533.776L933.931 543.783L895.79 581.924L885.783 571.917ZM846.821 504.739L857.238 494.322L934.259 571.343L923.842 581.76L846.821 504.739ZM863.39 527.214L875.284 521.062C878.838 529.319 881.627 537.795 883.65 546.49C885.673 555.184 886.794 563.797 887.013 572.327C887.232 580.749 886.494 588.869 884.799 596.689C883.431 596.415 881.818 596.224 879.959 596.114C878.045 595.95 876.159 595.814 874.299 595.704C872.44 595.486 870.8 595.486 869.378 595.704C870.909 590.455 871.893 584.932 872.331 579.135C872.768 573.339 872.686 567.461 872.085 561.5C871.538 555.485 870.526 549.607 869.05 543.865C867.573 538.014 865.687 532.464 863.39 527.214ZM880.041 511.055C886.822 513.899 894.122 516.059 901.942 517.535C909.761 518.902 917.608 519.422 925.483 519.094C933.357 518.765 940.767 517.535 947.711 515.402C947.547 516.879 947.493 518.629 947.547 520.652C947.657 522.621 947.848 524.617 948.121 526.64C948.34 528.608 948.614 530.358 948.942 531.889C941.231 533.694 933.166 534.542 924.744 534.432C916.323 534.213 907.82 533.092 899.235 531.069C890.65 529.046 882.256 526.339 874.053 522.949L880.041 511.055Z" fill="#31374A"/>
<path d="M949.19 434.196L1021.7 361.686L1031.71 371.693L959.197 444.203L949.19 434.196ZM1003.16 454.538L1041.3 416.396L1051.31 426.403L1013.17 464.545L1003.16 454.538ZM964.201 387.36L974.618 376.943L1051.64 453.963L1041.22 464.381L964.201 387.36ZM980.77 409.834L992.663 403.682C996.218 411.94 999.007 420.415 1001.03 429.11C1003.05 437.805 1004.17 446.417 1004.39 454.948C1004.61 463.369 1003.87 471.489 1002.18 479.309C1000.81 479.036 999.198 478.844 997.339 478.735C995.425 478.571 993.538 478.434 991.679 478.325C989.82 478.106 988.179 478.106 986.758 478.325C988.289 473.075 989.273 467.552 989.711 461.756C990.148 455.959 990.066 450.081 989.464 444.12C988.918 438.105 987.906 432.227 986.43 426.485C984.953 420.634 983.067 415.084 980.77 409.834ZM997.421 393.675C1004.2 396.519 1011.5 398.679 1019.32 400.155C1027.14 401.522 1034.99 402.042 1042.86 401.714C1050.74 401.386 1058.15 400.155 1065.09 398.023C1064.93 399.499 1064.87 401.249 1064.93 403.272C1065.04 405.241 1065.23 407.237 1065.5 409.26C1065.72 411.229 1065.99 412.979 1066.32 414.51C1058.61 416.314 1050.55 417.162 1042.12 417.052C1033.7 416.834 1025.2 415.713 1016.61 413.689C1008.03 411.666 999.635 408.959 991.433 405.569L997.421 393.675Z" fill="#31374A"/>
<path d="M614.022 1038.06L686.531 965.555L696.538 975.562L624.029 1048.07L614.022 1038.06ZM667.994 1058.41L706.135 1020.27L716.142 1030.27L678.001 1068.41L667.994 1058.41ZM629.032 991.229L639.449 980.812L716.47 1057.83L706.053 1068.25L629.032 991.229ZM645.601 1013.7L657.495 1007.55C661.049 1015.81 663.838 1024.28 665.861 1032.98C667.884 1041.67 669.005 1050.29 669.224 1058.82C669.443 1067.24 668.705 1075.36 667.01 1083.18C665.642 1082.9 664.029 1082.71 662.17 1082.6C660.256 1082.44 658.37 1082.3 656.51 1082.19C654.651 1081.98 653.011 1081.98 651.589 1082.19C653.12 1076.94 654.104 1071.42 654.542 1065.62C654.979 1059.83 654.897 1053.95 654.296 1047.99C653.749 1041.97 652.737 1036.1 651.261 1030.35C649.784 1024.5 647.898 1018.95 645.601 1013.7ZM662.252 997.545C669.033 1000.39 676.333 1002.55 684.153 1004.02C691.972 1005.39 699.819 1005.91 707.694 1005.58C715.568 1005.25 722.977 1004.02 729.922 1001.89C729.758 1003.37 729.703 1005.12 729.758 1007.14C729.868 1009.11 730.059 1011.11 730.332 1013.13C730.551 1015.1 730.824 1016.85 731.153 1018.38C723.442 1020.18 715.377 1021.03 706.955 1020.92C698.534 1020.7 690.031 1019.58 681.446 1017.56C672.861 1015.54 664.467 1012.83 656.264 1009.44L662.252 997.545Z" fill="#31374A"/>
<path d="M731.402 920.685L803.911 848.175L813.918 858.182L741.409 930.692L731.402 920.685ZM785.374 941.027L823.515 902.886L833.522 912.893L795.381 951.034L785.374 941.027ZM746.412 873.849L756.829 863.432L833.85 940.453L823.433 950.87L746.412 873.849ZM762.981 896.324L774.875 890.172C778.429 898.429 781.218 906.905 783.241 915.599C785.264 924.294 786.385 932.907 786.604 941.437C786.823 949.858 786.085 957.979 784.389 965.798C783.022 965.525 781.409 965.334 779.55 965.224C777.636 965.06 775.749 964.923 773.89 964.814C772.031 964.595 770.391 964.595 768.969 964.814C770.5 959.565 771.484 954.042 771.922 948.245C772.359 942.449 772.277 936.57 771.676 930.61C771.129 924.595 770.117 918.716 768.641 912.975C767.164 907.124 765.278 901.573 762.981 896.324ZM779.632 880.165C786.413 883.008 793.713 885.168 801.532 886.645C809.352 888.012 817.199 888.531 825.073 888.203C832.948 887.875 840.357 886.645 847.302 884.512C847.138 885.989 847.083 887.739 847.138 889.762C847.247 891.73 847.439 893.726 847.712 895.75C847.931 897.718 848.204 899.468 848.532 900.999C840.822 902.804 832.756 903.651 824.335 903.542C815.914 903.323 807.411 902.202 798.826 900.179C790.24 898.156 781.847 895.449 773.644 892.058L779.632 880.165Z" fill="#31374A"/>
<path d="M848.781 803.305L921.291 730.796L931.298 740.803L858.788 813.312L848.781 803.305ZM902.753 823.647L940.895 785.506L950.902 795.513L912.76 833.654L902.753 823.647ZM863.792 756.469L874.209 746.052L951.23 823.073L940.813 833.49L863.792 756.469ZM880.361 778.944L892.254 772.792C895.809 781.049 898.597 789.525 900.621 798.22C902.644 806.914 903.765 815.527 903.984 824.057C904.202 832.479 903.464 840.599 901.769 848.419C900.402 848.145 898.789 847.954 896.93 847.845C895.016 847.68 893.129 847.544 891.27 847.434C889.411 847.216 887.77 847.216 886.348 847.434C887.88 842.185 888.864 836.662 889.301 830.865C889.739 825.069 889.657 819.191 889.055 813.23C888.508 807.215 887.497 801.337 886.02 795.595C884.544 789.744 882.657 784.194 880.361 778.944ZM897.012 762.785C903.792 765.629 911.092 767.789 918.912 769.265C926.732 770.632 934.579 771.152 942.453 770.824C950.327 770.496 957.737 769.265 964.682 767.133C964.518 768.609 964.463 770.359 964.518 772.382C964.627 774.351 964.818 776.347 965.092 778.37C965.311 780.338 965.584 782.088 965.912 783.619C958.202 785.424 950.136 786.272 941.715 786.162C933.294 785.943 924.791 784.822 916.205 782.799C907.62 780.776 899.226 778.069 891.024 774.679L897.012 762.785Z" fill="#31374A"/>
<path d="M966.161 685.926L1038.67 613.416L1048.68 623.423L976.168 695.932L966.161 685.926ZM1020.13 706.268L1058.27 668.126L1068.28 678.133L1030.14 716.275L1020.13 706.268ZM981.171 639.09L991.588 628.672L1068.61 705.693L1058.19 716.11L981.171 639.09ZM997.74 661.564L1009.63 655.412C1013.19 663.67 1015.98 672.145 1018 680.84C1020.02 689.535 1021.14 698.147 1021.36 706.678C1021.58 715.099 1020.84 723.219 1019.15 731.039C1017.78 730.766 1016.17 730.574 1014.31 730.465C1012.4 730.301 1010.51 730.164 1008.65 730.055C1006.79 729.836 1005.15 729.836 1003.73 730.055C1005.26 724.805 1006.24 719.282 1006.68 713.486C1007.12 707.689 1007.04 701.811 1006.43 695.85C1005.89 689.835 1004.88 683.957 1003.4 678.215C1001.92 672.364 1000.04 666.814 997.74 661.564ZM1014.39 645.405C1021.17 648.249 1028.47 650.409 1036.29 651.885C1044.11 653.252 1051.96 653.772 1059.83 653.444C1067.71 653.116 1075.12 651.885 1082.06 649.753C1081.9 651.229 1081.84 652.979 1081.9 655.002C1082.01 656.971 1082.2 658.967 1082.47 660.99C1082.69 662.959 1082.96 664.709 1083.29 666.24C1075.58 668.044 1067.52 668.892 1059.09 668.782C1050.67 668.564 1042.17 667.443 1033.58 665.419C1025 663.396 1016.61 660.689 1008.4 657.299L1014.39 645.405Z" fill="#31374A"/>
<path d="M865.752 1055.04L938.262 982.526L948.269 992.533L875.759 1065.04L865.752 1055.04ZM919.724 1075.38L957.865 1037.24L967.872 1047.24L929.731 1085.38L919.724 1075.38ZM880.762 1008.2L891.18 997.782L968.2 1074.8L957.783 1085.22L880.762 1008.2ZM897.331 1030.67L909.225 1024.52C912.779 1032.78 915.568 1041.26 917.591 1049.95C919.615 1058.64 920.736 1067.26 920.954 1075.79C921.173 1084.21 920.435 1092.33 918.74 1100.15C917.373 1099.88 915.76 1099.68 913.9 1099.57C911.986 1099.41 910.1 1099.27 908.241 1099.16C906.381 1098.95 904.741 1098.95 903.319 1099.16C904.85 1093.91 905.835 1088.39 906.272 1082.6C906.709 1076.8 906.627 1070.92 906.026 1064.96C905.479 1058.95 904.467 1053.07 902.991 1047.32C901.515 1041.47 899.628 1035.92 897.331 1030.67ZM913.982 1014.52C920.763 1017.36 928.063 1019.52 935.883 1021C943.702 1022.36 951.549 1022.88 959.424 1022.55C967.298 1022.23 974.708 1021 981.652 1018.86C981.488 1020.34 981.434 1022.09 981.488 1024.11C981.598 1026.08 981.789 1028.08 982.063 1030.1C982.281 1032.07 982.555 1033.82 982.883 1035.35C975.173 1037.15 967.107 1038 958.686 1037.89C950.264 1037.67 941.761 1036.55 933.176 1034.53C924.591 1032.51 916.197 1029.8 907.995 1026.41L913.982 1014.52Z" fill="#31374A"/>
<path d="M983.132 937.656L1055.64 865.146L1065.65 875.153L993.139 947.663L983.132 937.656ZM1037.1 957.998L1075.25 919.856L1085.25 929.863L1047.11 968.005L1037.1 957.998ZM998.142 890.82L1008.56 880.403L1085.58 957.423L1075.16 967.841L998.142 890.82ZM1014.71 913.294L1026.6 907.142C1030.16 915.4 1032.95 923.875 1034.97 932.57C1036.99 941.265 1038.12 949.877 1038.33 958.408C1038.55 966.829 1037.81 974.949 1036.12 982.769C1034.75 982.496 1033.14 982.304 1031.28 982.195C1029.37 982.031 1027.48 981.894 1025.62 981.785C1023.76 981.566 1022.12 981.566 1020.7 981.785C1022.23 976.535 1023.21 971.012 1023.65 965.216C1024.09 959.419 1024.01 953.541 1023.41 947.581C1022.86 941.565 1021.85 935.687 1020.37 929.945C1018.89 924.094 1017.01 918.544 1014.71 913.294ZM1031.36 897.136C1038.14 899.979 1045.44 902.139 1053.26 903.615C1061.08 904.983 1068.93 905.502 1076.8 905.174C1084.68 904.846 1092.09 903.615 1099.03 901.483C1098.87 902.959 1098.81 904.709 1098.87 906.732C1098.98 908.701 1099.17 910.697 1099.44 912.72C1099.66 914.689 1099.93 916.439 1100.26 917.97C1092.55 919.774 1084.49 920.622 1076.07 920.512C1067.64 920.294 1059.14 919.173 1050.56 917.149C1041.97 915.126 1033.58 912.419 1025.37 909.029L1031.36 897.136Z" fill="#31374A"/>
</g>
<g filter="url(#filter0_d_20_4719)">
<path fill-rule="evenodd" clip-rule="evenodd" d="M362 732H415V880.995C415 882.655 413.662 884 412.011 884C411.275 884 410.565 883.727 410.017 883.234L390.494 865.668C389.359 864.647 387.641 864.647 386.506 865.668L366.983 883.234C365.753 884.341 363.863 884.236 362.762 882.999C362.271 882.448 362 881.735 362 880.995V732Z" fill="url(#paint0_linear_20_4719)"/>
<mask id="mask0_20_4719" style="mask-type:alpha" maskUnits="userSpaceOnUse" x="280" y="140" width="464" height="665">
<rect x="280" y="140" width="464" height="665" rx="50" fill="white"/>
</mask>
<g mask="url(#mask0_20_4719)">
<rect x="280" y="140" width="464" height="665" rx="50" fill="white"/>
<rect x="275" y="134" width="77.744" height="676" fill="#D2D5DD" stroke="#CDD0D8" stroke-width="10"/>
</g>
<path d="M451 775V761.875C451 755.903 454.056 751.042 460.167 747.292C466.278 743.542 474.333 741.667 484.333 741.667C486.139 741.667 487.875 741.701 489.542 741.771C491.208 741.84 492.806 742.014 494.333 742.292C492.389 745.208 490.931 748.264 489.958 751.458C488.986 754.653 488.5 757.986 488.5 761.458V775H451ZM501 775V761.458C501 757.014 502.215 752.951 504.646 749.271C507.076 745.59 510.514 742.361 514.958 739.583C519.403 736.806 524.715 734.722 530.896 733.333C537.076 731.944 543.778 731.25 551 731.25C558.361 731.25 565.132 731.944 571.312 733.333C577.493 734.722 582.806 736.806 587.25 739.583C591.694 742.361 595.097 745.59 597.458 749.271C599.819 752.951 601 757.014 601 761.458V775H501ZM613.5 775V761.458C613.5 757.847 613.049 754.444 612.146 751.25C611.243 748.056 609.889 745.069 608.083 742.292C609.611 742.014 611.174 741.84 612.771 741.771C614.368 741.701 616 741.667 617.667 741.667C627.667 741.667 635.722 743.507 641.833 747.188C647.944 750.868 651 755.764 651 761.875V775H613.5ZM518.708 758.333H583.5C582.111 755.556 578.257 753.125 571.938 751.042C565.618 748.958 558.639 747.917 551 747.917C543.361 747.917 536.382 748.958 530.062 751.042C523.743 753.125 519.958 755.556 518.708 758.333ZM484.333 733.333C479.75 733.333 475.826 731.701 472.562 728.438C469.299 725.174 467.667 721.25 467.667 716.667C467.667 711.944 469.299 707.986 472.562 704.792C475.826 701.597 479.75 700 484.333 700C489.056 700 493.014 701.597 496.208 704.792C499.403 707.986 501 711.944 501 716.667C501 721.25 499.403 725.174 496.208 728.438C493.014 731.701 489.056 733.333 484.333 733.333ZM617.667 733.333C613.083 733.333 609.16 731.701 605.896 728.438C602.632 725.174 601 721.25 601 716.667C601 711.944 602.632 707.986 605.896 704.792C609.16 701.597 613.083 700 617.667 700C622.389 700 626.347 701.597 629.542 704.792C632.736 707.986 634.333 711.944 634.333 716.667C634.333 721.25 632.736 725.174 629.542 728.438C626.347 731.701 622.389 733.333 617.667 733.333ZM551 725C544.056 725 538.153 722.569 533.292 717.708C528.431 712.847 526 706.944 526 700C526 692.917 528.431 686.979 533.292 682.188C538.153 677.396 544.056 675 551 675C558.083 675 564.021 677.396 568.812 682.188C573.604 686.979 576 692.917 576 700C576 706.944 573.604 712.847 568.812 717.708C564.021 722.569 558.083 725 551 725ZM551 708.333C553.361 708.333 555.34 707.535 556.938 705.938C558.535 704.34 559.333 702.361 559.333 700C559.333 697.639 558.535 695.66 556.938 694.062C555.34 692.465 553.361 691.667 551 691.667C548.639 691.667 546.66 692.465 545.062 694.062C543.465 695.66 542.667 697.639 542.667 700C542.667 702.361 543.465 704.34 545.062 705.938C546.66 707.535 548.639 708.333 551 708.333Z" fill="url(#paint1_linear_20_4719)"/>
<path d="M591.397 258.102H574.485V288H553.647V185.32H591.397C615.758 185.32 627.939 197.199 627.939 220.956C627.939 233.036 624.868 242.247 618.728 248.589C612.587 254.931 603.477 258.102 591.397 258.102ZM574.485 203.138V240.284H591.246C601.614 240.284 606.799 233.841 606.799 220.956C606.799 214.614 605.54 210.084 603.024 207.366C600.608 204.547 596.682 203.138 591.246 203.138H574.485ZM677.296 210.688C682.631 210.688 687.211 211.393 691.037 212.802C694.862 214.111 697.983 216.325 700.399 219.446C702.915 222.466 704.778 226.543 705.986 231.677C707.194 236.71 707.798 242.952 707.798 250.401C707.798 257.85 707.143 264.092 705.835 269.125C704.526 274.158 702.362 278.235 699.342 281.356C696.422 284.376 692.547 286.54 687.715 287.849C682.983 289.158 677.145 289.812 670.199 289.812C667.984 289.812 664.914 289.661 660.988 289.359C657.062 289.158 652.23 288.805 646.492 288.302L640.754 287.698V182.3H660.988V214.765C667.531 212.047 672.967 210.688 677.296 210.688ZM670.199 271.692C673.521 271.692 676.289 271.34 678.504 270.635C680.718 269.83 682.48 268.571 683.789 266.86C685.097 265.048 686.003 262.733 686.507 259.914C687.01 256.995 687.262 253.421 687.262 249.193C687.262 235.603 683.034 228.808 674.578 228.808C670.35 228.808 666.524 229.311 663.102 230.318L660.988 230.771V271.088C663.303 271.289 665.216 271.44 666.726 271.541C668.236 271.642 669.393 271.692 670.199 271.692Z" fill="#2C2C2E"/>
</g>
<defs>
<filter id="filter0_d_20_4719" x="230" y="90" width="564" height="844" filterUnits="userSpaceOnUse" color-interpolation-filters="sRGB">
<feFlood flood-opacity="0" result="BackgroundImageFix"/>
<feColorMatrix in="SourceAlpha" type="matrix" values="0 0 0 0 0 0 0 0 0 0 0 0 0 0 0 0 0 0 127 0" result="hardAlpha"/>
<feOffset/>
<feGaussianBlur stdDeviation="25"/>
<feComposite in2="hardAlpha" operator="out"/>
<feColorMatrix type="matrix" values="0 0 0 0 0 0 0 0 0 0 0 0 0 0 0 0 0 0 0.5 0"/>
<feBlend mode="normal" in2="BackgroundImageFix" result="effect1_dropShadow_20_4719"/>
<feBlend mode="normal" in="SourceGraphic" in2="effect1_dropShadow_20_4719" result="shape"/>
</filter>
<linearGradient id="paint0_linear_20_4719" x1="388.5" y1="732" x2="388.5" y2="846.806" gradientUnits="userSpaceOnUse">
<stop stop-color="#F74B4B"/>
<stop offset="1" stop-color="#DE4D4D"/>
</linearGradient>
<linearGradient id="paint1_linear_20_4719" x1="551" y1="675" x2="551" y2="775" gradientUnits="userSpaceOnUse">
<stop stop-color="#F64B4B"/>
<stop offset="1" stop-color="#DE4D4D"/>
</linearGradient>
<clipPath id="clip0_20_4719">
<rect width="1024" height="1024" fill="white"/>
</clipPath>
</defs>
</svg>
